<svg xmlns="http://www.w3.org/2000/svg" xmlns:xlink="http://www.w3.org/1999/xlink" width="500" zoomAndPan="magnify" viewBox="0 0 375 374.999991" height="500" preserveAspectRatio="xMidYMid meet" version="1.0"><defs><g/><clipPath id="7c74c887c0"><path d="M 43.378906 149.378906 L 128 149.378906 L 128 225.878906 L 43.378906 225.878906 Z M 43.378906 149.378906 " clip-rule="nonzero"/></clipPath></defs><rect x="-37.5" width="450" fill="#ffffff" y="-37.499999" height="449.999989" fill-opacity="1"/><rect x="-37.5" width="450" fill="#00004d" y="-37.499999" height="449.999989" fill-opacity="1"/><g clip-path="url(#7c74c887c0)"><path fill="#ffffff" d="M 46.996094 184.546875 C 48.996094 184.546875 50.613281 186.167969 50.613281 188.167969 C 50.613281 190.164062 48.996094 191.785156 46.996094 191.785156 C 45 191.785156 43.378906 190.164062 43.378906 188.167969 C 43.378906 186.167969 45 184.546875 46.996094 184.546875 M 49.300781 164.195312 C 51.007812 164.195312 52.390625 165.578125 52.390625 167.289062 C 52.390625 168.996094 51.007812 170.378906 49.300781 170.378906 C 47.589844 170.378906 46.207031 168.996094 46.207031 167.289062 C 46.207031 165.578125 47.589844 164.195312 49.300781 164.195312 Z M 62.578125 173.570312 C 65.269531 173.570312 67.449219 175.753906 67.449219 178.445312 C 67.449219 181.136719 65.269531 183.316406 62.578125 183.316406 C 59.886719 183.316406 57.703125 181.132812 57.703125 178.445312 C 57.707031 175.753906 59.886719 173.570312 62.578125 173.570312 Z M 68.207031 154.824219 C 70.695312 154.824219 72.714844 156.839844 72.714844 159.332031 C 72.714844 161.820312 70.695312 163.839844 68.207031 163.839844 C 65.71875 163.839844 63.699219 161.820312 63.699219 159.332031 C 63.699219 156.839844 65.71875 154.824219 68.207031 154.824219 Z M 94.890625 157.996094 L 103.785156 171.042969 L 104.140625 171.035156 C 108.617188 171.035156 112.246094 174.664062 112.246094 179.140625 C 112.246094 183.613281 108.617188 187.246094 104.140625 187.246094 C 102.035156 187.246094 100.046875 186.433594 98.5625 185.019531 L 93.695312 186.785156 C 93.183594 188.507812 92 189.941406 90.449219 190.777344 C 91.726562 191.203125 92.847656 192.019531 93.640625 193.109375 L 99.734375 193.082031 C 100.90625 191.554688 102.746094 190.613281 104.738281 190.613281 C 108.214844 190.613281 111.035156 193.433594 111.035156 196.910156 C 111.035156 200.390625 108.214844 203.210938 104.738281 203.210938 C 102.753906 203.210938 100.925781 202.28125 99.753906 200.761719 L 93.582031 200.789062 C 92.609375 202.089844 91.171875 202.980469 89.558594 203.273438 L 87.253906 208.207031 C 87.511719 208.886719 87.648438 209.609375 87.648438 210.34375 C 87.648438 212.246094 86.761719 213.941406 85.375 215.035156 C 89.367188 216.167969 92.949219 218.503906 95.605469 221.769531 L 108.746094 221.769531 L 113.503906 212.375 C 120.058594 210.730469 124.683594 210.96875 122.304688 202.996094 C 124.421875 200.972656 125.726562 200.238281 123.34375 198.46875 C 124.335938 197.957031 124.648438 197.460938 124.792969 196.78125 L 123.070312 193.519531 C 126.515625 191.546875 128.09375 189.574219 126.875 188.167969 L 119.019531 179.148438 C 117.6875 162.707031 106.921875 155.253906 95.375 154.621094 C 95.386719 154.804688 95.394531 154.988281 95.394531 155.175781 C 95.394531 156.144531 95.222656 157.097656 94.890625 157.996094 Z M 93.050781 154.585938 C 92.757812 151.667969 90.289062 149.386719 87.289062 149.386719 C 84.089844 149.386719 81.496094 151.980469 81.496094 155.175781 C 81.496094 155.800781 81.597656 156.40625 81.78125 156.96875 C 82.535156 159.289062 84.71875 160.96875 87.289062 160.96875 C 88.257812 160.96875 89.171875 160.730469 89.972656 160.3125 L 100.03125 175.0625 C 98.992188 176.109375 98.351562 177.550781 98.351562 179.136719 L 98.355469 179.382812 L 90.710938 182.15625 C 89.90625 181.140625 88.664062 180.488281 87.269531 180.488281 C 84.847656 180.488281 82.882812 182.453125 82.882812 184.878906 C 82.882812 187.300781 84.847656 189.265625 87.269531 189.265625 C 89.632812 189.265625 91.554688 187.398438 91.652344 185.0625 L 99.285156 182.292969 C 100.320312 183.882812 102.109375 184.929688 104.140625 184.929688 C 107.339844 184.929688 109.933594 182.335938 109.933594 179.136719 C 109.933594 175.941406 107.34375 173.347656 104.140625 173.347656 C 103.636719 173.347656 103.148438 173.410156 102.683594 173.53125 L 92.230469 158.199219 C 92.769531 157.320312 93.082031 156.285156 93.082031 155.175781 C 93.082031 154.976562 93.070312 154.78125 93.050781 154.585938 Z M 79.605469 207.3125 C 78.636719 207.972656 78 209.085938 78 210.34375 C 78 212.246094 79.449219 213.808594 81.300781 213.992188 C 81.421875 214.003906 81.542969 214.011719 81.667969 214.011719 C 83.691406 214.011719 85.335938 212.371094 85.335938 210.34375 C 85.335938 209.566406 85.09375 208.847656 84.679688 208.253906 L 88.046875 201.042969 L 88.414062 201.058594 C 90.148438 201.058594 91.636719 199.992188 92.253906 198.476562 L 101.0625 198.441406 C 101.660156 199.882812 103.082031 200.894531 104.738281 200.894531 C 106.941406 200.894531 108.722656 199.109375 108.722656 196.910156 C 108.722656 194.710938 106.941406 192.925781 104.738281 192.925781 C 103.078125 192.925781 101.652344 193.945312 101.054688 195.390625 L 92.289062 195.429688 C 91.695312 193.871094 90.183594 192.761719 88.414062 192.761719 C 87.046875 192.761719 85.832031 193.425781 85.074219 194.449219 L 77.816406 190.476562 C 77.894531 190.132812 77.933594 189.773438 77.933594 189.40625 C 77.933594 187.847656 77.226562 186.453125 76.117188 185.527344 L 79.15625 178.023438 C 79.46875 178.0625 79.792969 178.085938 80.117188 178.085938 C 84.261719 178.085938 87.617188 174.726562 87.617188 170.582031 C 87.617188 166.4375 84.261719 163.078125 80.117188 163.078125 C 75.972656 163.078125 72.613281 166.4375 72.613281 170.582031 C 72.613281 173.316406 74.078125 175.710938 76.265625 177.019531 L 73.292969 184.367188 L 72.875 184.351562 C 70.085938 184.351562 67.820312 186.613281 67.820312 189.40625 C 67.820312 192.199219 70.085938 194.464844 72.875 194.464844 C 74.199219 194.464844 75.402344 193.953125 76.304688 193.125 L 84.308594 197.507812 C 84.425781 198.335938 84.789062 199.082031 85.320312 199.675781 L 82.042969 206.699219 L 81.667969 206.679688 C 80.902344 206.679688 80.191406 206.914062 79.605469 207.3125 Z M 87.269531 178.175781 C 88.726562 178.175781 90.117188 178.648438 91.261719 179.496094 L 96.160156 177.71875 C 96.332031 176.753906 96.679688 175.828125 97.179688 174.988281 L 89.066406 163.089844 C 88.484375 163.21875 87.890625 163.285156 87.289062 163.285156 L 86.65625 163.261719 C 88.667969 165.058594 89.933594 167.671875 89.933594 170.582031 C 89.933594 173.6875 88.488281 176.457031 86.234375 178.257812 C 86.570312 178.203125 86.917969 178.175781 87.269531 178.175781 Z M 79.53125 217.195312 C 81.855469 217.195312 83.742188 219.078125 83.742188 221.40625 C 83.742188 223.734375 81.855469 225.617188 79.53125 225.617188 C 77.207031 225.617188 75.320312 223.734375 75.320312 221.40625 C 75.320312 219.078125 77.203125 217.195312 79.53125 217.195312 Z M 66.429688 210.8125 C 68.753906 210.8125 70.640625 212.695312 70.640625 215.023438 C 70.640625 217.351562 68.753906 219.234375 66.429688 219.234375 C 64.101562 219.234375 62.214844 217.351562 62.214844 215.023438 C 62.214844 212.695312 64.101562 210.8125 66.429688 210.8125 Z M 59.921875 196.199219 C 61.882812 196.199219 63.472656 197.789062 63.472656 199.75 C 63.472656 201.710938 61.882812 203.304688 59.921875 203.304688 C 57.957031 203.304688 56.367188 201.710938 56.367188 199.75 C 56.367188 197.785156 57.957031 196.199219 59.921875 196.199219 Z M 59.921875 196.199219 " fill-opacity="1" fill-rule="evenodd"/></g><g fill="#ffffff" fill-opacity="1"><g transform="translate(129.594138, 196.124987)"><g><path d="M 1.59375 -1.5625 L 2.203125 -6.640625 C 3.128906 -5.984375 4.046875 -5.515625 4.953125 -5.234375 C 5.867188 -4.953125 6.695312 -4.785156 7.4375 -4.734375 C 8.1875 -4.691406 8.742188 -4.679688 9.109375 -4.703125 C 9.828125 -4.742188 10.4375 -4.992188 10.9375 -5.453125 C 11.445312 -5.921875 11.671875 -6.484375 11.609375 -7.140625 C 11.566406 -7.835938 11.304688 -8.363281 10.828125 -8.71875 C 10.359375 -9.082031 9.785156 -9.378906 9.109375 -9.609375 C 7.835938 -10.085938 6.65625 -10.632812 5.5625 -11.25 C 4.46875 -11.875 3.585938 -12.644531 2.921875 -13.5625 C 2.253906 -14.488281 1.921875 -15.628906 1.921875 -16.984375 C 1.921875 -18.335938 2.207031 -19.5625 2.78125 -20.65625 C 3.363281 -21.75 4.171875 -22.625 5.203125 -23.28125 C 6.242188 -23.9375 7.429688 -24.300781 8.765625 -24.375 C 9.398438 -24.414062 10.171875 -24.390625 11.078125 -24.296875 C 11.992188 -24.210938 13.234375 -23.898438 14.796875 -23.359375 L 14.1875 -18.6875 C 12.851562 -19.226562 11.789062 -19.535156 11 -19.609375 C 10.207031 -19.691406 9.617188 -19.722656 9.234375 -19.703125 C 8.378906 -19.648438 7.753906 -19.351562 7.359375 -18.8125 C 6.960938 -18.269531 6.789062 -17.660156 6.84375 -16.984375 C 6.90625 -16.304688 7.195312 -15.789062 7.71875 -15.4375 C 8.238281 -15.09375 8.847656 -14.796875 9.546875 -14.546875 C 10.804688 -14.097656 11.96875 -13.539062 13.03125 -12.875 C 14.09375 -12.207031 14.941406 -11.40625 15.578125 -10.46875 C 16.222656 -9.53125 16.546875 -8.421875 16.546875 -7.140625 C 16.546875 -5.804688 16.253906 -4.597656 15.671875 -3.515625 C 15.085938 -2.429688 14.242188 -1.5625 13.140625 -0.90625 C 12.046875 -0.257812 10.742188 0.109375 9.234375 0.203125 C 8.785156 0.222656 8.171875 0.203125 7.390625 0.140625 C 6.617188 0.0859375 5.734375 -0.0625 4.734375 -0.3125 C 3.742188 -0.570312 2.695312 -0.988281 1.59375 -1.5625 Z M 1.59375 -1.5625 "/></g></g></g><g fill="#ffffff" fill-opacity="1"><g transform="translate(145.629989, 196.124987)"><g><path d="M 19.625 0 L 14.796875 0 L 14.796875 -9.671875 L 7.546875 -9.671875 L 7.546875 0 L 2.703125 0 L 2.703125 -24.203125 L 7.546875 -24.203125 L 7.546875 -14.515625 L 14.796875 -14.515625 L 14.796875 -24.203125 L 19.625 -24.203125 Z M 19.625 0 "/></g></g></g><g fill="#ffffff" fill-opacity="1"><g transform="translate(166.131656, 196.124987)"><g><path d="M 0.546875 0 L 10.734375 -25.078125 L 11.234375 -25.078125 L 21.421875 0 L 15.96875 0 L 15 -2.609375 L 6.96875 -2.609375 L 6.03125 0 Z M 8.734375 -7.140625 L 13.203125 -7.140625 L 11 -13.4375 Z M 8.734375 -7.140625 "/></g></g></g><g fill="#ffffff" fill-opacity="1"><g transform="translate(186.362671, 196.124987)"><g><path d="M 14.75 0 L 9.875 -9.234375 L 7.546875 -9.234375 L 7.546875 0 L 2.703125 0 L 2.703125 -24.203125 L 12.25 -24.203125 C 13.695312 -24.203125 14.921875 -23.898438 15.921875 -23.296875 C 16.921875 -22.703125 17.703125 -21.925781 18.265625 -20.96875 C 18.835938 -20.007812 19.191406 -18.96875 19.328125 -17.84375 C 19.460938 -16.726562 19.375 -15.632812 19.0625 -14.5625 C 18.757812 -13.5 18.242188 -12.550781 17.515625 -11.71875 C 16.785156 -10.894531 15.820312 -10.316406 14.625 -9.984375 L 20.234375 0 Z M 7.546875 -13.9375 L 11.8125 -13.9375 C 12.46875 -13.9375 12.992188 -14.117188 13.390625 -14.484375 C 13.785156 -14.847656 14.050781 -15.300781 14.1875 -15.84375 C 14.320312 -16.382812 14.320312 -16.925781 14.1875 -17.46875 C 14.050781 -18.007812 13.785156 -18.457031 13.390625 -18.8125 C 12.992188 -19.175781 12.46875 -19.359375 11.8125 -19.359375 L 7.546875 -19.359375 Z M 7.546875 -13.9375 "/></g></g></g><g fill="#ffffff" fill-opacity="1"><g transform="translate(205.240397, 196.124987)"><g><path d="M 15.234375 0 L 2.703125 0 L 2.703125 -24.203125 L 14.828125 -24.203125 L 14.828125 -19.359375 L 7.546875 -19.359375 L 7.546875 -14.515625 L 13.90625 -14.515625 L 13.90625 -9.671875 L 7.546875 -9.671875 L 7.546875 -4.84375 L 15.234375 -4.84375 Z M 15.234375 0 "/></g></g></g><g fill="#ffffff" fill-opacity="1"><g transform="translate(220.430448, 196.124987)"><g><path d="M 9.921875 -24.203125 C 11.921875 -24.203125 13.675781 -23.863281 15.1875 -23.1875 C 16.707031 -22.507812 17.96875 -21.59375 18.96875 -20.4375 C 19.96875 -19.289062 20.722656 -17.992188 21.234375 -16.546875 C 21.742188 -15.109375 22 -13.625 22 -12.09375 C 22 -10.570312 21.742188 -9.085938 21.234375 -7.640625 C 20.722656 -6.203125 19.96875 -4.90625 18.96875 -3.75 C 17.96875 -2.601562 16.707031 -1.691406 15.1875 -1.015625 C 13.675781 -0.335938 11.921875 0 9.921875 0 L 2.703125 0 L 2.703125 -24.203125 Z M 9.921875 -19.359375 L 7.546875 -19.359375 L 7.546875 -4.84375 L 9.921875 -4.84375 C 11.273438 -4.84375 12.429688 -5.097656 13.390625 -5.609375 C 14.347656 -6.128906 15.113281 -6.820312 15.6875 -7.6875 C 16.257812 -8.5625 16.640625 -9.515625 16.828125 -10.546875 C 17.023438 -11.585938 17.023438 -12.625 16.828125 -13.65625 C 16.640625 -14.6875 16.257812 -15.632812 15.6875 -16.5 C 15.113281 -17.363281 14.347656 -18.054688 13.390625 -18.578125 C 12.429688 -19.097656 11.273438 -19.359375 9.921875 -19.359375 Z M 9.921875 -19.359375 "/></g></g></g><g fill="#ffffff" fill-opacity="1"><g transform="translate(242.386893, 196.124987)"><g/></g></g><g fill="#ffffff" fill-opacity="1"><g transform="translate(250.133913, 196.124987)"><g><path d="M 13.8125 -13.9375 L 23.359375 -24.578125 L 24.875 -24.578125 L 24.875 0 L 19.96875 0 L 20 -13.5 L 13.8125 -7 L 7.609375 -13.5 L 7.609375 0 L 2.703125 0 L 2.703125 -24.578125 L 4.265625 -24.578125 Z M 13.8125 -13.9375 "/></g></g></g><g fill="#ffffff" fill-opacity="1"><g transform="translate(275.879535, 196.124987)"><g><path d="M 7.546875 0 L 2.703125 0 L 2.703125 -24.203125 L 7.546875 -24.203125 Z M 7.546875 0 "/></g></g></g><g fill="#ffffff" fill-opacity="1"><g transform="translate(284.303199, 196.124987)"><g><path d="M 7.546875 -13.171875 L 7.546875 0 L 2.703125 0 L 2.703125 -24.703125 L 4 -24.703125 L 16.21875 -10.484375 L 16.21875 -24.171875 L 21.078125 -24.171875 L 21.078125 0.5 L 19.796875 0.5 Z M 7.546875 -13.171875 "/></g></g></g><g fill="#ffffff" fill-opacity="1"><g transform="translate(306.259637, 196.124987)"><g><path d="M 9.921875 -24.203125 C 11.921875 -24.203125 13.675781 -23.863281 15.1875 -23.1875 C 16.707031 -22.507812 17.96875 -21.59375 18.96875 -20.4375 C 19.96875 -19.289062 20.722656 -17.992188 21.234375 -16.546875 C 21.742188 -15.109375 22 -13.625 22 -12.09375 C 22 -10.570312 21.742188 -9.085938 21.234375 -7.640625 C 20.722656 -6.203125 19.96875 -4.90625 18.96875 -3.75 C 17.96875 -2.601562 16.707031 -1.691406 15.1875 -1.015625 C 13.675781 -0.335938 11.921875 0 9.921875 0 L 2.703125 0 L 2.703125 -24.203125 Z M 9.921875 -19.359375 L 7.546875 -19.359375 L 7.546875 -4.84375 L 9.921875 -4.84375 C 11.273438 -4.84375 12.429688 -5.097656 13.390625 -5.609375 C 14.347656 -6.128906 15.113281 -6.820312 15.6875 -7.6875 C 16.257812 -8.5625 16.640625 -9.515625 16.828125 -10.546875 C 17.023438 -11.585938 17.023438 -12.625 16.828125 -13.65625 C 16.640625 -14.6875 16.257812 -15.632812 15.6875 -16.5 C 15.113281 -17.363281 14.347656 -18.054688 13.390625 -18.578125 C 12.429688 -19.097656 11.273438 -19.359375 9.921875 -19.359375 Z M 9.921875 -19.359375 "/></g></g></g><g fill="#ffffff" fill-opacity="1"><g transform="translate(130.344138, 210.740905)"><g><path d="M 2.640625 -4.765625 L 2.234375 -3.46875 L 4.796875 -3.46875 L 4.390625 -4.765625 C 4.234375 -5.242188 4.085938 -5.71875 3.953125 -6.1875 C 3.816406 -6.664062 3.675781 -7.148438 3.53125 -7.640625 L 3.484375 -7.640625 C 3.347656 -7.148438 3.210938 -6.664062 3.078125 -6.1875 C 2.941406 -5.71875 2.796875 -5.242188 2.640625 -4.765625 Z M 0.03125 0 L 2.921875 -8.53125 L 4.140625 -8.53125 L 7.03125 0 L 5.875 0 L 5.0625 -2.59375 L 1.96875 -2.59375 L 1.140625 0 Z M 0.03125 0 "/></g></g></g><g fill="#ffffff" fill-opacity="1"><g transform="translate(137.413977, 210.740905)"><g><path d="M 1.171875 0 L 1.171875 -8.53125 L 2.25 -8.53125 L 2.25 0 Z M 1.171875 0 "/></g></g></g><g fill="#ffffff" fill-opacity="1"><g transform="translate(140.831926, 210.740905)"><g/></g></g><g fill="#ffffff" fill-opacity="1"><g transform="translate(143.431131, 210.740905)"><g><path d="M 1.171875 0 L 1.171875 -8.53125 L 6.078125 -8.53125 L 6.078125 -7.625 L 2.25 -7.625 L 2.25 -4.734375 L 5.5 -4.734375 L 5.5 -3.828125 L 2.25 -3.828125 L 2.25 0 Z M 1.171875 0 "/></g></g></g><g fill="#ffffff" fill-opacity="1"><g transform="translate(149.851163, 210.740905)"><g><path d="M 4.3125 0.15625 C 3.78125 0.15625 3.289062 0.0507812 2.84375 -0.15625 C 2.394531 -0.363281 2.007812 -0.660156 1.6875 -1.046875 C 1.363281 -1.429688 1.113281 -1.898438 0.9375 -2.453125 C 0.757812 -3.003906 0.671875 -3.617188 0.671875 -4.296875 C 0.671875 -4.984375 0.757812 -5.597656 0.9375 -6.140625 C 1.113281 -6.679688 1.363281 -7.140625 1.6875 -7.515625 C 2.007812 -7.898438 2.394531 -8.191406 2.84375 -8.390625 C 3.289062 -8.585938 3.78125 -8.6875 4.3125 -8.6875 C 4.851562 -8.6875 5.347656 -8.582031 5.796875 -8.375 C 6.242188 -8.175781 6.628906 -7.882812 6.953125 -7.5 C 7.273438 -7.125 7.523438 -6.664062 7.703125 -6.125 C 7.878906 -5.582031 7.96875 -4.972656 7.96875 -4.296875 C 7.96875 -3.617188 7.878906 -3.003906 7.703125 -2.453125 C 7.523438 -1.898438 7.273438 -1.429688 6.953125 -1.046875 C 6.628906 -0.660156 6.242188 -0.363281 5.796875 -0.15625 C 5.347656 0.0507812 4.851562 0.15625 4.3125 0.15625 Z M 4.3125 -0.796875 C 4.695312 -0.796875 5.039062 -0.875 5.34375 -1.03125 C 5.65625 -1.195312 5.921875 -1.429688 6.140625 -1.734375 C 6.359375 -2.046875 6.53125 -2.414062 6.65625 -2.84375 C 6.78125 -3.28125 6.84375 -3.765625 6.84375 -4.296875 C 6.84375 -4.828125 6.78125 -5.304688 6.65625 -5.734375 C 6.53125 -6.160156 6.359375 -6.519531 6.140625 -6.8125 C 5.921875 -7.101562 5.65625 -7.328125 5.34375 -7.484375 C 5.039062 -7.648438 4.695312 -7.734375 4.3125 -7.734375 C 3.9375 -7.734375 3.59375 -7.648438 3.28125 -7.484375 C 2.976562 -7.328125 2.710938 -7.101562 2.484375 -6.8125 C 2.265625 -6.519531 2.09375 -6.160156 1.96875 -5.734375 C 1.851562 -5.304688 1.796875 -4.828125 1.796875 -4.296875 C 1.796875 -3.765625 1.851562 -3.28125 1.96875 -2.84375 C 2.09375 -2.414062 2.265625 -2.046875 2.484375 -1.734375 C 2.710938 -1.429688 2.976562 -1.195312 3.28125 -1.03125 C 3.59375 -0.875 3.9375 -0.796875 4.3125 -0.796875 Z M 4.3125 -0.796875 "/></g></g></g><g fill="#ffffff" fill-opacity="1"><g transform="translate(158.480522, 210.740905)"><g><path d="M 1.171875 0 L 1.171875 -8.53125 L 3.828125 -8.53125 C 4.265625 -8.53125 4.664062 -8.488281 5.03125 -8.40625 C 5.40625 -8.320312 5.722656 -8.179688 5.984375 -7.984375 C 6.253906 -7.796875 6.460938 -7.550781 6.609375 -7.25 C 6.753906 -6.945312 6.828125 -6.578125 6.828125 -6.140625 C 6.828125 -5.472656 6.648438 -4.9375 6.296875 -4.53125 C 5.953125 -4.132812 5.488281 -3.863281 4.90625 -3.71875 L 7.078125 0 L 5.84375 0 L 3.796875 -3.59375 L 2.25 -3.59375 L 2.25 0 Z M 2.25 -4.484375 L 3.671875 -4.484375 C 4.347656 -4.484375 4.863281 -4.617188 5.21875 -4.890625 C 5.570312 -5.160156 5.75 -5.578125 5.75 -6.140625 C 5.75 -6.703125 5.570312 -7.09375 5.21875 -7.3125 C 4.863281 -7.539062 4.347656 -7.65625 3.671875 -7.65625 L 2.25 -7.65625 Z M 2.25 -4.484375 "/></g></g></g><g fill="#ffffff" fill-opacity="1"><g transform="translate(165.875259, 210.740905)"><g/></g></g><g fill="#ffffff" fill-opacity="1"><g transform="translate(168.474464, 210.740905)"><g><path d="M 2.546875 0 L 2.546875 -3.296875 L -0.015625 -8.53125 L 1.140625 -8.53125 L 2.25 -6.125 C 2.382812 -5.8125 2.515625 -5.503906 2.640625 -5.203125 C 2.773438 -4.898438 2.914062 -4.585938 3.0625 -4.265625 L 3.125 -4.265625 C 3.269531 -4.585938 3.414062 -4.898438 3.5625 -5.203125 C 3.707031 -5.503906 3.847656 -5.8125 3.984375 -6.125 L 5.0625 -8.53125 L 6.203125 -8.53125 L 3.640625 -3.296875 L 3.640625 0 Z M 2.546875 0 "/></g></g></g><g fill="#ffffff" fill-opacity="1"><g transform="translate(174.660568, 210.740905)"><g><path d="M 4.3125 0.15625 C 3.78125 0.15625 3.289062 0.0507812 2.84375 -0.15625 C 2.394531 -0.363281 2.007812 -0.660156 1.6875 -1.046875 C 1.363281 -1.429688 1.113281 -1.898438 0.9375 -2.453125 C 0.757812 -3.003906 0.671875 -3.617188 0.671875 -4.296875 C 0.671875 -4.984375 0.757812 -5.597656 0.9375 -6.140625 C 1.113281 -6.679688 1.363281 -7.140625 1.6875 -7.515625 C 2.007812 -7.898438 2.394531 -8.191406 2.84375 -8.390625 C 3.289062 -8.585938 3.78125 -8.6875 4.3125 -8.6875 C 4.851562 -8.6875 5.347656 -8.582031 5.796875 -8.375 C 6.242188 -8.175781 6.628906 -7.882812 6.953125 -7.5 C 7.273438 -7.125 7.523438 -6.664062 7.703125 -6.125 C 7.878906 -5.582031 7.96875 -4.972656 7.96875 -4.296875 C 7.96875 -3.617188 7.878906 -3.003906 7.703125 -2.453125 C 7.523438 -1.898438 7.273438 -1.429688 6.953125 -1.046875 C 6.628906 -0.660156 6.242188 -0.363281 5.796875 -0.15625 C 5.347656 0.0507812 4.851562 0.15625 4.3125 0.15625 Z M 4.3125 -0.796875 C 4.695312 -0.796875 5.039062 -0.875 5.34375 -1.03125 C 5.65625 -1.195312 5.921875 -1.429688 6.140625 -1.734375 C 6.359375 -2.046875 6.53125 -2.414062 6.65625 -2.84375 C 6.78125 -3.28125 6.84375 -3.765625 6.84375 -4.296875 C 6.84375 -4.828125 6.78125 -5.304688 6.65625 -5.734375 C 6.53125 -6.160156 6.359375 -6.519531 6.140625 -6.8125 C 5.921875 -7.101562 5.65625 -7.328125 5.34375 -7.484375 C 5.039062 -7.648438 4.695312 -7.734375 4.3125 -7.734375 C 3.9375 -7.734375 3.59375 -7.648438 3.28125 -7.484375 C 2.976562 -7.328125 2.710938 -7.101562 2.484375 -6.8125 C 2.265625 -6.519531 2.09375 -6.160156 1.96875 -5.734375 C 1.851562 -5.304688 1.796875 -4.828125 1.796875 -4.296875 C 1.796875 -3.765625 1.851562 -3.28125 1.96875 -2.84375 C 2.09375 -2.414062 2.265625 -2.046875 2.484375 -1.734375 C 2.710938 -1.429688 2.976562 -1.195312 3.28125 -1.03125 C 3.59375 -0.875 3.9375 -0.796875 4.3125 -0.796875 Z M 4.3125 -0.796875 "/></g></g></g><g fill="#ffffff" fill-opacity="1"><g transform="translate(183.289927, 210.740905)"><g><path d="M 4.203125 0.15625 C 3.765625 0.15625 3.359375 0.09375 2.984375 -0.03125 C 2.609375 -0.15625 2.28125 -0.363281 2 -0.65625 C 1.726562 -0.945312 1.515625 -1.328125 1.359375 -1.796875 C 1.203125 -2.265625 1.125 -2.835938 1.125 -3.515625 L 1.125 -8.53125 L 2.203125 -8.53125 L 2.203125 -3.5 C 2.203125 -2.988281 2.253906 -2.554688 2.359375 -2.203125 C 2.460938 -1.859375 2.601562 -1.582031 2.78125 -1.375 C 2.96875 -1.164062 3.179688 -1.015625 3.421875 -0.921875 C 3.660156 -0.835938 3.921875 -0.796875 4.203125 -0.796875 C 4.484375 -0.796875 4.742188 -0.835938 4.984375 -0.921875 C 5.234375 -1.015625 5.445312 -1.164062 5.625 -1.375 C 5.8125 -1.582031 5.957031 -1.859375 6.0625 -2.203125 C 6.164062 -2.554688 6.21875 -2.988281 6.21875 -3.5 L 6.21875 -8.53125 L 7.25 -8.53125 L 7.25 -3.515625 C 7.25 -2.835938 7.171875 -2.265625 7.015625 -1.796875 C 6.859375 -1.328125 6.644531 -0.945312 6.375 -0.65625 C 6.101562 -0.363281 5.78125 -0.15625 5.40625 -0.03125 C 5.03125 0.09375 4.628906 0.15625 4.203125 0.15625 Z M 4.203125 0.15625 "/></g></g></g><g fill="#ffffff" fill-opacity="1"><g transform="translate(191.672358, 210.740905)"><g><path d="M 1.171875 0 L 1.171875 -8.53125 L 3.828125 -8.53125 C 4.265625 -8.53125 4.664062 -8.488281 5.03125 -8.40625 C 5.40625 -8.320312 5.722656 -8.179688 5.984375 -7.984375 C 6.253906 -7.796875 6.460938 -7.550781 6.609375 -7.25 C 6.753906 -6.945312 6.828125 -6.578125 6.828125 -6.140625 C 6.828125 -5.472656 6.648438 -4.9375 6.296875 -4.53125 C 5.953125 -4.132812 5.488281 -3.863281 4.90625 -3.71875 L 7.078125 0 L 5.84375 0 L 3.796875 -3.59375 L 2.25 -3.59375 L 2.25 0 Z M 2.25 -4.484375 L 3.671875 -4.484375 C 4.347656 -4.484375 4.863281 -4.617188 5.21875 -4.890625 C 5.570312 -5.160156 5.75 -5.578125 5.75 -6.140625 C 5.75 -6.703125 5.570312 -7.09375 5.21875 -7.3125 C 4.863281 -7.539062 4.347656 -7.65625 3.671875 -7.65625 L 2.25 -7.65625 Z M 2.25 -4.484375 "/></g></g></g><g fill="#ffffff" fill-opacity="1"><g transform="translate(199.067094, 210.740905)"><g/></g></g><g fill="#ffffff" fill-opacity="1"><g transform="translate(201.666299, 210.740905)"><g><path d="M 1.171875 0 L 1.171875 -8.53125 L 3.703125 -8.53125 C 4.140625 -8.53125 4.535156 -8.488281 4.890625 -8.40625 C 5.253906 -8.332031 5.5625 -8.210938 5.8125 -8.046875 C 6.070312 -7.878906 6.269531 -7.660156 6.40625 -7.390625 C 6.550781 -7.128906 6.625 -6.816406 6.625 -6.453125 C 6.625 -6.023438 6.519531 -5.640625 6.3125 -5.296875 C 6.101562 -4.953125 5.789062 -4.71875 5.375 -4.59375 L 5.375 -4.53125 C 5.894531 -4.4375 6.316406 -4.21875 6.640625 -3.875 C 6.960938 -3.539062 7.125 -3.082031 7.125 -2.5 C 7.125 -2.082031 7.046875 -1.71875 6.890625 -1.40625 C 6.734375 -1.09375 6.507812 -0.832031 6.21875 -0.625 C 5.9375 -0.414062 5.597656 -0.257812 5.203125 -0.15625 C 4.804688 -0.0507812 4.367188 0 3.890625 0 Z M 2.25 -4.90625 L 3.515625 -4.90625 C 4.242188 -4.90625 4.765625 -5.03125 5.078125 -5.28125 C 5.398438 -5.53125 5.5625 -5.875 5.5625 -6.3125 C 5.5625 -6.800781 5.394531 -7.148438 5.0625 -7.359375 C 4.726562 -7.566406 4.226562 -7.671875 3.5625 -7.671875 L 2.25 -7.671875 Z M 2.25 -0.859375 L 3.734375 -0.859375 C 4.472656 -0.859375 5.046875 -0.992188 5.453125 -1.265625 C 5.859375 -1.535156 6.0625 -1.957031 6.0625 -2.53125 C 6.0625 -3.0625 5.859375 -3.445312 5.453125 -3.6875 C 5.054688 -3.9375 4.484375 -4.0625 3.734375 -4.0625 L 2.25 -4.0625 Z M 2.25 -0.859375 "/></g></g></g><g fill="#ffffff" fill-opacity="1"><g transform="translate(209.307954, 210.740905)"><g><path d="M 4.203125 0.15625 C 3.765625 0.15625 3.359375 0.09375 2.984375 -0.03125 C 2.609375 -0.15625 2.28125 -0.363281 2 -0.65625 C 1.726562 -0.945312 1.515625 -1.328125 1.359375 -1.796875 C 1.203125 -2.265625 1.125 -2.835938 1.125 -3.515625 L 1.125 -8.53125 L 2.203125 -8.53125 L 2.203125 -3.5 C 2.203125 -2.988281 2.253906 -2.554688 2.359375 -2.203125 C 2.460938 -1.859375 2.601562 -1.582031 2.78125 -1.375 C 2.96875 -1.164062 3.179688 -1.015625 3.421875 -0.921875 C 3.660156 -0.835938 3.921875 -0.796875 4.203125 -0.796875 C 4.484375 -0.796875 4.742188 -0.835938 4.984375 -0.921875 C 5.234375 -1.015625 5.445312 -1.164062 5.625 -1.375 C 5.8125 -1.582031 5.957031 -1.859375 6.0625 -2.203125 C 6.164062 -2.554688 6.21875 -2.988281 6.21875 -3.5 L 6.21875 -8.53125 L 7.25 -8.53125 L 7.25 -3.515625 C 7.25 -2.835938 7.171875 -2.265625 7.015625 -1.796875 C 6.859375 -1.328125 6.644531 -0.945312 6.375 -0.65625 C 6.101562 -0.363281 5.78125 -0.15625 5.40625 -0.03125 C 5.03125 0.09375 4.628906 0.15625 4.203125 0.15625 Z M 4.203125 0.15625 "/></g></g></g><g fill="#ffffff" fill-opacity="1"><g transform="translate(217.690384, 210.740905)"><g><path d="M 3.53125 0.15625 C 2.9375 0.15625 2.382812 0.046875 1.875 -0.171875 C 1.363281 -0.398438 0.921875 -0.710938 0.546875 -1.109375 L 1.203125 -1.859375 C 1.503906 -1.535156 1.859375 -1.273438 2.265625 -1.078125 C 2.679688 -0.890625 3.109375 -0.796875 3.546875 -0.796875 C 4.109375 -0.796875 4.546875 -0.921875 4.859375 -1.171875 C 5.171875 -1.429688 5.328125 -1.769531 5.328125 -2.1875 C 5.328125 -2.40625 5.289062 -2.585938 5.21875 -2.734375 C 5.144531 -2.890625 5.046875 -3.019531 4.921875 -3.125 C 4.796875 -3.226562 4.644531 -3.320312 4.46875 -3.40625 C 4.300781 -3.5 4.113281 -3.59375 3.90625 -3.6875 L 2.6875 -4.21875 C 2.488281 -4.3125 2.285156 -4.414062 2.078125 -4.53125 C 1.867188 -4.65625 1.679688 -4.800781 1.515625 -4.96875 C 1.359375 -5.144531 1.226562 -5.351562 1.125 -5.59375 C 1.019531 -5.832031 0.96875 -6.109375 0.96875 -6.421875 C 0.96875 -6.742188 1.03125 -7.039062 1.15625 -7.3125 C 1.289062 -7.59375 1.476562 -7.832031 1.71875 -8.03125 C 1.957031 -8.238281 2.238281 -8.398438 2.5625 -8.515625 C 2.894531 -8.628906 3.253906 -8.6875 3.640625 -8.6875 C 4.148438 -8.6875 4.617188 -8.585938 5.046875 -8.390625 C 5.484375 -8.191406 5.851562 -7.9375 6.15625 -7.625 L 5.578125 -6.921875 C 5.316406 -7.179688 5.023438 -7.378906 4.703125 -7.515625 C 4.390625 -7.660156 4.035156 -7.734375 3.640625 -7.734375 C 3.160156 -7.734375 2.773438 -7.625 2.484375 -7.40625 C 2.191406 -7.1875 2.046875 -6.878906 2.046875 -6.484375 C 2.046875 -6.273438 2.085938 -6.097656 2.171875 -5.953125 C 2.253906 -5.816406 2.363281 -5.691406 2.5 -5.578125 C 2.644531 -5.472656 2.800781 -5.378906 2.96875 -5.296875 C 3.132812 -5.210938 3.300781 -5.132812 3.46875 -5.0625 L 4.6875 -4.546875 C 4.925781 -4.441406 5.148438 -4.320312 5.359375 -4.1875 C 5.578125 -4.050781 5.765625 -3.894531 5.921875 -3.71875 C 6.078125 -3.539062 6.203125 -3.332031 6.296875 -3.09375 C 6.390625 -2.863281 6.4375 -2.59375 6.4375 -2.28125 C 6.4375 -1.9375 6.367188 -1.617188 6.234375 -1.328125 C 6.097656 -1.035156 5.90625 -0.773438 5.65625 -0.546875 C 5.40625 -0.328125 5.101562 -0.15625 4.75 -0.03125 C 4.394531 0.09375 3.988281 0.15625 3.53125 0.15625 Z M 3.53125 0.15625 "/></g></g></g><g fill="#ffffff" fill-opacity="1"><g transform="translate(224.630253, 210.740905)"><g><path d="M 1.171875 0 L 1.171875 -8.53125 L 2.25 -8.53125 L 2.25 0 Z M 1.171875 0 "/></g></g></g><g fill="#ffffff" fill-opacity="1"><g transform="translate(228.048202, 210.740905)"><g><path d="M 1.171875 0 L 1.171875 -8.53125 L 2.28125 -8.53125 L 5.375 -3.171875 L 6.296875 -1.40625 L 6.34375 -1.40625 C 6.320312 -1.832031 6.296875 -2.273438 6.265625 -2.734375 C 6.234375 -3.203125 6.21875 -3.664062 6.21875 -4.125 L 6.21875 -8.53125 L 7.234375 -8.53125 L 7.234375 0 L 6.125 0 L 3.03125 -5.375 L 2.109375 -7.125 L 2.046875 -7.125 C 2.085938 -6.6875 2.125 -6.242188 2.15625 -5.796875 C 2.1875 -5.359375 2.203125 -4.910156 2.203125 -4.453125 L 2.203125 0 Z M 1.171875 0 "/></g></g></g><g fill="#ffffff" fill-opacity="1"><g transform="translate(236.456622, 210.740905)"><g><path d="M 1.171875 0 L 1.171875 -8.53125 L 6.078125 -8.53125 L 6.078125 -7.625 L 2.25 -7.625 L 2.25 -4.9375 L 5.484375 -4.9375 L 5.484375 -4.015625 L 2.25 -4.015625 L 2.25 -0.921875 L 6.21875 -0.921875 L 6.21875 0 Z M 1.171875 0 "/></g></g></g><g fill="#ffffff" fill-opacity="1"><g transform="translate(243.305522, 210.740905)"><g><path d="M 3.53125 0.15625 C 2.9375 0.15625 2.382812 0.046875 1.875 -0.171875 C 1.363281 -0.398438 0.921875 -0.710938 0.546875 -1.109375 L 1.203125 -1.859375 C 1.503906 -1.535156 1.859375 -1.273438 2.265625 -1.078125 C 2.679688 -0.890625 3.109375 -0.796875 3.546875 -0.796875 C 4.109375 -0.796875 4.546875 -0.921875 4.859375 -1.171875 C 5.171875 -1.429688 5.328125 -1.769531 5.328125 -2.1875 C 5.328125 -2.40625 5.289062 -2.585938 5.21875 -2.734375 C 5.144531 -2.890625 5.046875 -3.019531 4.921875 -3.125 C 4.796875 -3.226562 4.644531 -3.320312 4.46875 -3.40625 C 4.300781 -3.5 4.113281 -3.59375 3.90625 -3.6875 L 2.6875 -4.21875 C 2.488281 -4.3125 2.285156 -4.414062 2.078125 -4.53125 C 1.867188 -4.65625 1.679688 -4.800781 1.515625 -4.96875 C 1.359375 -5.144531 1.226562 -5.351562 1.125 -5.59375 C 1.019531 -5.832031 0.96875 -6.109375 0.96875 -6.421875 C 0.96875 -6.742188 1.03125 -7.039062 1.15625 -7.3125 C 1.289062 -7.59375 1.476562 -7.832031 1.71875 -8.03125 C 1.957031 -8.238281 2.238281 -8.398438 2.5625 -8.515625 C 2.894531 -8.628906 3.253906 -8.6875 3.640625 -8.6875 C 4.148438 -8.6875 4.617188 -8.585938 5.046875 -8.390625 C 5.484375 -8.191406 5.851562 -7.9375 6.15625 -7.625 L 5.578125 -6.921875 C 5.316406 -7.179688 5.023438 -7.378906 4.703125 -7.515625 C 4.390625 -7.660156 4.035156 -7.734375 3.640625 -7.734375 C 3.160156 -7.734375 2.773438 -7.625 2.484375 -7.40625 C 2.191406 -7.1875 2.046875 -6.878906 2.046875 -6.484375 C 2.046875 -6.273438 2.085938 -6.097656 2.171875 -5.953125 C 2.253906 -5.816406 2.363281 -5.691406 2.5 -5.578125 C 2.644531 -5.472656 2.800781 -5.378906 2.96875 -5.296875 C 3.132812 -5.210938 3.300781 -5.132812 3.46875 -5.0625 L 4.6875 -4.546875 C 4.925781 -4.441406 5.148438 -4.320312 5.359375 -4.1875 C 5.578125 -4.050781 5.765625 -3.894531 5.921875 -3.71875 C 6.078125 -3.539062 6.203125 -3.332031 6.296875 -3.09375 C 6.390625 -2.863281 6.4375 -2.59375 6.4375 -2.28125 C 6.4375 -1.9375 6.367188 -1.617188 6.234375 -1.328125 C 6.097656 -1.035156 5.90625 -0.773438 5.65625 -0.546875 C 5.40625 -0.328125 5.101562 -0.15625 4.75 -0.03125 C 4.394531 0.09375 3.988281 0.15625 3.53125 0.15625 Z M 3.53125 0.15625 "/></g></g></g><g fill="#ffffff" fill-opacity="1"><g transform="translate(250.24539, 210.740905)"><g><path d="M 3.53125 0.15625 C 2.9375 0.15625 2.382812 0.046875 1.875 -0.171875 C 1.363281 -0.398438 0.921875 -0.710938 0.546875 -1.109375 L 1.203125 -1.859375 C 1.503906 -1.535156 1.859375 -1.273438 2.265625 -1.078125 C 2.679688 -0.890625 3.109375 -0.796875 3.546875 -0.796875 C 4.109375 -0.796875 4.546875 -0.921875 4.859375 -1.171875 C 5.171875 -1.429688 5.328125 -1.769531 5.328125 -2.1875 C 5.328125 -2.40625 5.289062 -2.585938 5.21875 -2.734375 C 5.144531 -2.890625 5.046875 -3.019531 4.921875 -3.125 C 4.796875 -3.226562 4.644531 -3.320312 4.46875 -3.40625 C 4.300781 -3.5 4.113281 -3.59375 3.90625 -3.6875 L 2.6875 -4.21875 C 2.488281 -4.3125 2.285156 -4.414062 2.078125 -4.53125 C 1.867188 -4.65625 1.679688 -4.800781 1.515625 -4.96875 C 1.359375 -5.144531 1.226562 -5.351562 1.125 -5.59375 C 1.019531 -5.832031 0.96875 -6.109375 0.96875 -6.421875 C 0.96875 -6.742188 1.03125 -7.039062 1.15625 -7.3125 C 1.289062 -7.59375 1.476562 -7.832031 1.71875 -8.03125 C 1.957031 -8.238281 2.238281 -8.398438 2.5625 -8.515625 C 2.894531 -8.628906 3.253906 -8.6875 3.640625 -8.6875 C 4.148438 -8.6875 4.617188 -8.585938 5.046875 -8.390625 C 5.484375 -8.191406 5.851562 -7.9375 6.15625 -7.625 L 5.578125 -6.921875 C 5.316406 -7.179688 5.023438 -7.378906 4.703125 -7.515625 C 4.390625 -7.660156 4.035156 -7.734375 3.640625 -7.734375 C 3.160156 -7.734375 2.773438 -7.625 2.484375 -7.40625 C 2.191406 -7.1875 2.046875 -6.878906 2.046875 -6.484375 C 2.046875 -6.273438 2.085938 -6.097656 2.171875 -5.953125 C 2.253906 -5.816406 2.363281 -5.691406 2.5 -5.578125 C 2.644531 -5.472656 2.800781 -5.378906 2.96875 -5.296875 C 3.132812 -5.210938 3.300781 -5.132812 3.46875 -5.0625 L 4.6875 -4.546875 C 4.925781 -4.441406 5.148438 -4.320312 5.359375 -4.1875 C 5.578125 -4.050781 5.765625 -3.894531 5.921875 -3.71875 C 6.078125 -3.539062 6.203125 -3.332031 6.296875 -3.09375 C 6.390625 -2.863281 6.4375 -2.59375 6.4375 -2.28125 C 6.4375 -1.9375 6.367188 -1.617188 6.234375 -1.328125 C 6.097656 -1.035156 5.90625 -0.773438 5.65625 -0.546875 C 5.40625 -0.328125 5.101562 -0.15625 4.75 -0.03125 C 4.394531 0.09375 3.988281 0.15625 3.53125 0.15625 Z M 3.53125 0.15625 "/></g></g></g></svg>